<svg width="112" height="72" viewBox="0 0 112 72" fill="none" xmlns="http://www.w3.org/2000/svg">
<path d="M75.1745 1.12769H60.517C59.152 1.12769 57.8381 1.67257 56.8313 2.65336L40.0581 18.9998C40.041 19.018 40.0239 19.0543 40.0069 19.0725C37.1743 21.9059 37.2255 26.4284 39.6485 29.2436C41.8156 31.7682 46.3715 32.4403 49.2211 29.734C49.2381 29.7158 49.2723 29.7158 49.2893 29.6977L62.923 16.4026C64.0321 15.331 65.7726 15.4036 66.7793 16.5842C67.8031 17.7648 67.7178 19.5992 66.6087 20.689L62.1551 25.0299L86.9994 46.4982C87.4942 46.9341 87.9379 47.4064 88.3474 47.8967V12.7518L79.0308 2.83498C78.024 1.74522 76.6249 1.12769 75.1745 1.12769ZM93.8247 12.7882V53.4545C93.8247 56.6694 96.2648 59.2666 99.285 59.2666H110.206V12.7882H93.8247ZM102.015 53.4545C100.514 53.4545 99.285 52.1468 99.285 50.5485C99.285 48.9502 100.514 47.6425 102.015 47.6425C103.517 47.6425 104.745 48.9502 104.745 50.5485C104.745 52.1468 103.517 53.4545 102.015 53.4545ZM1 59.2485H11.9206C14.9408 59.2485 17.3808 56.6512 17.3808 53.4364V12.7882H1V59.2485ZM9.19042 47.6425C10.692 47.6425 11.9206 48.9502 11.9206 50.5485C11.9206 52.1468 10.692 53.4545 9.19042 53.4545C7.68884 53.4545 6.46028 52.1468 6.46028 50.5485C6.46028 48.932 7.68884 47.6425 9.19042 47.6425ZM83.5696 51.0207L58.094 29.0075L52.975 34.0023C47.9072 38.9244 40.1434 38.4521 35.6216 33.2031C31.0315 27.8632 31.3899 19.5992 36.3724 14.7316L50.3302 1.12769H36.0311C34.5807 1.12769 33.1986 1.74522 32.1748 2.83498L22.8411 12.7518V53.4182H25.9637L41.4061 68.2935C46.0814 72.3438 52.958 71.581 56.7631 66.6044L56.7972 66.568L59.8516 69.3833C62.5646 71.7444 66.5745 71.2904 68.7757 68.4025L74.1336 61.3917L75.055 62.1908C77.3927 64.2069 80.8395 63.8436 82.7335 61.3372L84.3546 59.2121C86.2657 56.7057 85.9073 53.055 83.5696 51.0207Z" fill="url(#paint0_radial_330_1794)" stroke="white" stroke-width="1.87106"/>
<defs>
<radialGradient id="paint0_radial_330_1794" cx="0" cy="0" r="1" gradientUnits="userSpaceOnUse" gradientTransform="translate(55.742 36.1533) rotate(163.972) scale(56.8129 40.3082)">
<stop stop-color="#FF00FE"/>
<stop offset="1" stop-color="#FE8C00"/>
</radialGradient>
</defs>
</svg>
