<svg width="93" height="98" viewBox="0 0 93 98" fill="none" xmlns="http://www.w3.org/2000/svg">
<g clip-path="url(#clip0_330_1795)">
<path d="M73.5717 33.3928C73.5717 50.3236 61.0744 52.9531 61.0744 68.7322C61.0744 76.8781 53.2686 77.5644 47.3274 77.5644C42.1961 77.5644 30.866 75.5161 30.866 68.7269C30.866 52.9557 18.5837 50.3263 18.5837 33.3928C18.5837 17.5348 31.7933 4.67963 46.2852 4.67963C60.782 4.67963 73.5717 17.5348 73.5717 33.3928Z" fill="url(#paint0_radial_330_1795)" stroke="white" stroke-width="1.85"/>
<path d="M56.4978 89.7665C56.4978 91.9437 50.914 96.34 46.0826 96.34C41.2511 96.34 35.6674 91.9437 35.6674 89.7665C35.6674 87.5893 41.2486 88.4518 46.0826 88.4518C50.914 88.4518 56.4978 87.5893 56.4978 89.7665Z" fill="url(#paint1_radial_330_1795)" stroke="white" stroke-width="1.85"/>
<path d="M57.837 31.3751C57.6051 31.1307 57.3296 30.9368 57.0264 30.8045C56.7232 30.6722 56.3981 30.6041 56.0699 30.6041C55.7416 30.6041 55.4166 30.6722 55.1133 30.8045C54.8101 30.9368 54.5347 31.1307 54.3028 31.3751L46.0721 40.0337L37.8414 31.3751C37.6093 31.1309 37.3338 30.9373 37.0306 30.8052C36.7274 30.6731 36.4025 30.6051 36.0743 30.6051C35.7461 30.6051 35.4211 30.6731 35.1179 30.8052C34.8147 30.9373 34.5392 31.1309 34.3072 31.3751C34.0751 31.6192 33.891 31.909 33.7654 32.228C33.6398 32.547 33.5752 32.8888 33.5752 33.2341C33.5752 33.5793 33.6398 33.9212 33.7654 34.2402C33.891 34.5591 34.0751 34.8489 34.3072 35.0931L43.5726 44.8403V72.6753C43.5726 73.3727 43.836 74.0415 44.3047 74.5346C44.7734 75.0277 45.4092 75.3047 46.0721 75.3047C46.735 75.3047 47.3707 75.0277 47.8394 74.5346C48.3082 74.0415 48.5715 73.3727 48.5715 72.6753V44.8403L57.837 35.0931C58.0693 34.8491 58.2536 34.5593 58.3793 34.2403C58.5051 33.9213 58.5698 33.5794 58.5698 33.2341C58.5698 32.8887 58.5051 32.5468 58.3793 32.2278C58.2536 31.9088 58.0693 31.6191 57.837 31.3751Z" fill="white"/>
<path d="M63.1499 82.9347C63.1499 83.8825 62.6302 84.7915 61.705 85.4618C60.7798 86.132 59.525 86.5085 58.2166 86.5085H38.4833C37.1749 86.5085 35.92 86.132 34.9949 85.4618C34.0697 84.7915 33.5499 83.8825 33.5499 82.9347V72.2131H63.1499V82.9347Z" fill="#FE7726"/>
<path d="M31.0683 88.4501C30.4424 88.4477 29.8402 88.1983 29.3806 87.7513C28.9211 87.3042 28.6377 86.6921 28.5865 86.0358C28.5353 85.3796 28.72 84.727 29.1041 84.2071C29.4882 83.6872 30.0438 83.3379 30.6609 83.2281L60.6543 77.9693C60.9782 77.9107 61.3098 77.9202 61.6302 77.9974C61.9505 78.0745 62.2531 78.2177 62.5204 78.4188C62.7877 78.6198 63.0145 78.8746 63.1876 79.1685C63.3606 79.4623 63.4766 79.7894 63.5287 80.1307C63.5827 80.4712 63.5724 80.8195 63.4984 81.1558C63.4243 81.4921 63.288 81.8097 63.0972 82.0906C62.9064 82.3714 62.6648 82.6099 62.3863 82.7925C62.1078 82.975 61.7979 83.098 61.4741 83.1545L31.4807 88.4133C31.3446 88.4385 31.2066 88.4508 31.0683 88.4501ZM31.0683 77.9325C30.4424 77.93 29.8402 77.6806 29.3806 77.2336C28.9211 76.7866 28.6377 76.1744 28.5865 75.5182C28.5353 74.8619 28.72 74.2094 29.1041 73.6895C29.4882 73.1696 30.0438 72.8202 30.6609 72.7105L60.6543 67.4516C60.9781 67.3934 61.3097 67.4032 61.6299 67.4805C61.9501 67.5578 62.2525 67.701 62.5198 67.902C62.787 68.103 63.0138 68.3576 63.187 68.6513C63.3601 68.945 63.4763 69.2719 63.5287 69.613C63.5827 69.9535 63.5724 70.3018 63.4984 70.6381C63.4243 70.9744 63.288 71.2921 63.0972 71.5729C62.9064 71.8537 62.6648 72.0923 62.3863 72.2748C62.1078 72.4574 61.7979 72.5804 61.4741 72.6368L31.4807 77.8957C31.3446 77.9209 31.2066 77.9332 31.0683 77.9325Z" fill="url(#paint2_radial_330_1795)" stroke="white" stroke-width="1.85"/>
</g>
<defs>
<radialGradient id="paint0_radial_330_1795" cx="0" cy="0" r="1" gradientUnits="userSpaceOnUse" gradientTransform="translate(46.1478 41.2687) rotate(149.205) scale(32.0076 37.6336)">
<stop stop-color="#FF00FE"/>
<stop offset="1" stop-color="#FE8C00"/>
</radialGradient>
<radialGradient id="paint1_radial_330_1795" cx="0" cy="0" r="1" gradientUnits="userSpaceOnUse" gradientTransform="translate(46.1091 92.3279) rotate(170.134) scale(10.5719 4.77126)">
<stop stop-color="#FF00FE"/>
<stop offset="1" stop-color="#FE8C00"/>
</radialGradient>
<radialGradient id="paint2_radial_330_1795" cx="0" cy="0" r="1" gradientUnits="userSpaceOnUse" gradientTransform="translate(46.115 77.9745) rotate(164.871) scale(18.1209 12.2063)">
<stop stop-color="#FF00FE"/>
<stop offset="1" stop-color="#FE8C00"/>
</radialGradient>
<clipPath id="clip0_330_1795">
<rect width="92.5" height="96.4943" fill="white" transform="translate(0.25 0.735779)"/>
</clipPath>
</defs>
</svg>
