<svg width="100" height="100" viewBox="0 0 100 100" fill="none" xmlns="http://www.w3.org/2000/svg">
<g id="emojione:victory-hand">
<path id="Vector" d="M57.771 50.0486C56.9977 53.451 59.1628 57.008 62.7199 57.7813C66.2769 58.5545 69.8339 56.3894 70.6072 52.987L80.0411 12.4678C80.8143 9.06546 78.6492 5.50843 75.0921 4.73516C71.5351 3.9619 67.9781 6.12704 67.2048 9.52942L57.771 50.0486Z" fill="url(#paint0_radial_330_1802)" stroke="white" stroke-width="1.85"/>
<g id="Group">
<path id="Vector_2" d="M69.9899 54.0664C69.9899 54.0664 56.535 40.7663 32.7184 47.4163C32.7184 47.4163 18.6449 49.8908 19.4182 57.0049C19.4182 57.0049 18.9542 74.6354 24.9857 85.1518C32.4403 97.913 59.3382 100.091 72.736 85.1518C75.7373 81.8052 75.4529 78.7978 77.0662 73.5048C77.0662 67.9548 77.0662 55.0049 69.9899 54.0664Z" fill="url(#paint1_radial_330_1802)" stroke="white" stroke-width="1.85"/>
<g id="Vector_3">
<path d="M46.0127 52.3661C46.6313 55.9231 50.1884 58.0883 53.7454 57.4697C57.3024 56.8511 59.7769 53.4487 59.1582 49.8916L51.4256 9.06315C50.807 5.50612 47.2499 3.34097 43.6929 3.95959C40.1359 4.5782 37.6614 7.98058 38.4347 11.5376L46.0127 52.3661Z" fill="url(#paint2_radial_330_1802)"/>
<path d="M46.0127 52.3661C46.6313 55.9231 50.1884 58.0883 53.7454 57.4697C57.3024 56.8511 59.7769 53.4487 59.1582 49.8916L51.4256 9.06315C50.807 5.50612 47.2499 3.34097 43.6929 3.95959C40.1359 4.5782 37.6614 7.98058 38.4347 11.5376L46.0127 52.3661" stroke="white" stroke-width="1.85"/>
</g>
</g>
<g id="Group_2">
<g id="Vector_4">
<path d="M18.6495 50.3582C18.1856 46.8012 20.8147 43.5535 24.5263 43.0895H24.681C28.238 42.7802 31.6404 45.2547 31.9497 48.9664L33.0323 59.0188C33.4962 62.5758 30.8671 65.8236 27.1554 66.2875H27.0008C23.2891 66.5968 20.0414 64.1224 19.7321 60.4107L18.6495 50.3582Z" fill="url(#paint3_radial_330_1802)"/>
<path d="M18.6495 50.3582C18.1856 46.8012 20.8147 43.5535 24.5263 43.0895H24.681C28.238 42.7802 31.6404 45.2547 31.9497 48.9664L33.0323 59.0188C33.4962 62.5758 30.8671 65.8236 27.1554 66.2875H27.0008C23.2891 66.5968 20.0414 64.1224 19.7321 60.4107L18.6495 50.3582" stroke="white" stroke-width="1.85"/>
</g>
<g id="Vector_5">
<path d="M31.1632 43.0895C30.6992 39.5325 33.3283 36.2847 37.04 35.8208H37.1947C40.9063 35.5115 44.1541 37.9859 44.4634 41.6976L45.5459 51.7501C46.0099 55.3071 43.3808 58.5548 39.6691 59.0188H39.5145C35.8028 59.3281 32.5551 56.8536 32.2458 53.142L31.1632 43.0895Z" fill="url(#paint4_radial_330_1802)"/>
<path d="M31.1632 43.0895C30.6992 39.5325 33.3283 36.2847 37.04 35.8208H37.1947C40.9063 35.5115 44.1541 37.9859 44.4634 41.6976L45.5459 51.7501C46.0099 55.3071 43.3808 58.5548 39.6691 59.0188H39.5145C35.8028 59.3281 32.5551 56.8536 32.2458 53.142L31.1632 43.0895" stroke="white" stroke-width="1.85"/>
</g>
</g>
<g id="Group_3">
<path id="Vector_6" d="M24.9514 64.1245C28.6631 63.6606 31.1376 60.5675 30.8283 56.8558L29.7457 46.8033C29.591 45.8754 29.1271 44.7929 28.6631 43.8649C30.9829 44.9475 31.7562 46.8033 32.0655 48.9685L33.1481 59.021C33.612 62.578 30.9829 65.8257 27.4259 66.135C24.7968 66.4443 22.3223 65.0525 21.0851 63.042C22.013 63.8152 23.4049 64.2792 24.9514 64.1245Z" fill="white"/>
<path id="Vector_7" d="M37.3032 56.8552C41.0149 56.3912 43.644 53.2982 43.18 49.7411L42.0975 39.6887C41.9428 38.7607 41.4788 37.5235 41.0149 36.7502C43.18 37.9875 44.1079 39.8433 44.4172 42.0085L45.4998 52.0609C45.9638 55.618 43.3347 58.711 39.623 59.175H39.4683C36.8392 59.4843 34.3648 58.0924 33.1276 56.0819C34.3648 56.7005 35.7567 57.0098 37.3032 56.8552Z" fill="white"/>
<path id="Vector_8" d="M64.0872 63.8137C56.6638 60.2567 39.8066 66.4428 43.209 81.9081C43.209 65.8242 57.7464 63.0404 64.0872 63.8137Z" fill="white"/>
<path id="Vector_9" d="M61.2844 47.8844C55.8715 44.6366 54.9436 49.7402 45.819 50.0495C41.798 50.2042 40.0969 58.4008 46.1283 61.3392C54.4796 65.5148 55.0982 59.638 57.2634 61.9578C59.4285 64.4322 61.439 64.8962 63.2949 67.68C64.6867 69.6905 75.0485 66.5974 76.1311 62.4218C78.1416 54.2251 69.6356 52.9879 61.2844 47.8844Z" fill="white"/>
</g>
<g id="Vector_10">
<path d="M61.9428 49.2754C56.3753 46.0277 55.2927 51.1312 45.8589 51.4406C41.6832 51.5952 39.8274 60.1011 46.1682 63.1942C54.8288 67.5245 55.602 61.3384 57.6125 63.8128C59.9323 66.2873 61.9428 66.9059 63.9533 69.8443C65.3452 72.0094 61.6335 80.0514 61.6335 80.0514C61.6335 80.0514 72.3046 87.6294 74.4698 83.2991C78.4907 75.2572 77.4082 69.071 77.2535 64.4314C76.9442 53.4511 70.7581 54.5336 61.9428 49.2754Z" fill="url(#paint5_radial_330_1802)"/>
<path d="M61.9428 49.2754C56.3753 46.0277 55.2927 51.1312 45.8589 51.4406C41.6832 51.5952 39.8274 60.1011 46.1682 63.1942C54.8288 67.5245 55.602 61.3384 57.6125 63.8128C59.9323 66.2873 61.9428 66.9059 63.9533 69.8443C65.3452 72.0094 61.6335 80.0514 61.6335 80.0514C61.6335 80.0514 72.3046 87.6294 74.4698 83.2991C78.4907 75.2572 77.4082 69.071 77.2535 64.4314C76.9442 53.4511 70.7581 54.5336 61.9428 49.2754" stroke="white" stroke-width="1.85"/>
</g>
</g>
<defs>
<radialGradient id="paint0_radial_330_1802" cx="0" cy="0" r="1" gradientUnits="userSpaceOnUse" gradientTransform="translate(68.9348 31.3656) rotate(133.266) scale(16.4751 21.983)">
<stop stop-color="#FF00FE"/>
<stop offset="1" stop-color="#FE8C00"/>
</radialGradient>
<radialGradient id="paint1_radial_330_1802" cx="0" cy="0" r="1" gradientUnits="userSpaceOnUse" gradientTransform="translate(48.3004 70.6555) rotate(158.704) scale(30.9538 28.0031)">
<stop stop-color="#FF00FE"/>
<stop offset="1" stop-color="#FE8C00"/>
</radialGradient>
<radialGradient id="paint2_radial_330_1802" cx="0" cy="0" r="1" gradientUnits="userSpaceOnUse" gradientTransform="translate(48.7997 30.8228) rotate(130.949) scale(15.9912 21.1633)">
<stop stop-color="#FF00FE"/>
<stop offset="1" stop-color="#FE8C00"/>
</radialGradient>
<radialGradient id="paint3_radial_330_1802" cx="0" cy="0" r="1" gradientUnits="userSpaceOnUse" gradientTransform="translate(25.8594 54.7353) rotate(144.188) scale(8.93366 11.3333)">
<stop stop-color="#FF00FE"/>
<stop offset="1" stop-color="#FE8C00"/>
</radialGradient>
<radialGradient id="paint4_radial_330_1802" cx="0" cy="0" r="1" gradientUnits="userSpaceOnUse" gradientTransform="translate(38.373 47.4666) rotate(144.188) scale(8.93365 11.3333)">
<stop stop-color="#FF00FE"/>
<stop offset="1" stop-color="#FE8C00"/>
</radialGradient>
<radialGradient id="paint5_radial_330_1802" cx="0" cy="0" r="1" gradientUnits="userSpaceOnUse" gradientTransform="translate(59.8201 66.4904) rotate(155.196) scale(19.528 19.8817)">
<stop stop-color="#FF00FE"/>
<stop offset="1" stop-color="#FE8C00"/>
</radialGradient>
</defs>
</svg>
