<svg width="65" height="64" viewBox="0 0 65 64" fill="none" xmlns="http://www.w3.org/2000/svg">
<path fill-rule="evenodd" clip-rule="evenodd" d="M52.5053 36.9291H52.6175L52.7747 36.9404L52.8702 36.9488L52.9712 36.9628L53.0358 36.974L53.1621 36.9993L53.2351 37.0161L53.3249 37.0386L53.4203 37.0667L53.5832 37.1228L53.7123 37.1733L53.8358 37.2295L53.9172 37.2688L54.0323 37.3305L54.1446 37.3979L54.2063 37.4372L54.3242 37.5186L54.3916 37.5691L54.4561 37.6197L54.546 37.6954L54.647 37.7881L54.7425 37.8835L54.7705 37.9144L54.8351 37.9874L54.9277 38.0968L54.9726 38.153L55.0428 38.2484L55.0877 38.313L55.127 38.3775L55.1775 38.4618L55.2393 38.574C55.2589 38.6105 55.2758 38.647 55.2926 38.6835C55.3095 38.7172 55.3235 38.7509 55.3375 38.7846C55.3825 38.8884 55.4218 38.9951 55.4554 39.1046C55.4667 39.1411 55.4779 39.1776 55.4863 39.2169C55.5172 39.3347 55.5425 39.4526 55.5593 39.5761L55.5733 39.7025V39.7502C55.5818 39.8119 55.5874 39.8737 55.5874 39.9354V40.014V55.3235V55.4105L55.5818 55.5228L55.5733 55.6126L55.5649 55.6968L55.5537 55.7726C55.5481 55.8119 55.5425 55.8512 55.534 55.8905L55.52 55.9635L55.4975 56.059L55.4751 56.1432C55.4611 56.1965 55.4442 56.247 55.4274 56.3004C55.4133 56.3453 55.3965 56.3902 55.3796 56.4351L55.3291 56.5586C55.3067 56.6091 55.2842 56.6568 55.2618 56.7046L55.2337 56.7607L55.1747 56.8702L55.1214 56.96L55.0793 57.0246C55.0512 57.0695 55.0204 57.1116 54.9895 57.1537L54.8968 57.2716L54.8154 57.367L54.7593 57.4288L54.6779 57.513L54.5656 57.6197L54.5095 57.6702L54.4196 57.7432L54.3663 57.7853L54.3186 57.8218L54.313 57.8274C53.9621 58.1839 53.5214 58.4618 53.0133 58.6161L52.9123 58.6442L33.6112 63.8147C33.4653 63.854 32.7579 64.0028 32.0842 64.0028C31.3797 64.0028 30.7088 63.854 30.5572 63.8147L11.2561 58.6442C10.7396 58.5067 10.2877 58.2428 9.92561 57.8975L9.84702 57.8218L9.7993 57.7853L9.69544 57.7039L9.6 57.6225L9.57193 57.5972C9.51579 57.5439 9.45965 57.4905 9.40912 57.4344L9.32491 57.3418L9.2379 57.2351L9.22947 57.2239C9.19579 57.1818 9.16491 57.1397 9.13684 57.0976L9.06386 56.9881L8.99649 56.8758L8.96561 56.8225C8.94596 56.786 8.92632 56.7495 8.90667 56.7102L8.87298 56.6372L8.82246 56.5221L8.81684 56.5053C8.79158 56.4407 8.76632 56.3761 8.74386 56.3088L8.7186 56.2302L8.68772 56.1207L8.66807 56.0449C8.65684 55.9972 8.64561 55.9495 8.63719 55.9018C8.62877 55.8625 8.62316 55.8232 8.61754 55.7839L8.60351 55.68L8.59228 55.5649V55.5088L8.58386 55.4218V55.3347V40.0253C8.58386 39.9719 8.58386 39.9186 8.58667 39.8653V39.8119L8.59789 39.7081C8.61474 39.5425 8.64281 39.3825 8.68491 39.2253C8.69614 39.1888 8.70456 39.1523 8.71579 39.1158C8.74947 39.0063 8.78877 38.8997 8.83368 38.7958C8.84772 38.7621 8.86456 38.7284 8.8786 38.6947L8.90667 38.6386L8.96 38.5404L9.01614 38.4449L9.05825 38.3747L9.08912 38.3242L9.1593 38.2204L9.1986 38.167L9.2407 38.1137L9.27439 38.0716L9.33614 37.9958L9.42877 37.8919L9.51018 37.8105L9.62807 37.7011L9.71789 37.6253L9.81614 37.5467L9.91439 37.4737L9.96772 37.4372L10.0379 37.3923L10.1586 37.3193L10.2568 37.266L10.3382 37.2267L10.4618 37.1705L10.6105 37.1116L10.734 37.0695L10.8491 37.0358L10.9586 37.0077L11.0737 36.9825L11.1382 36.9712L11.2449 36.9544L11.3544 36.9404L11.4442 36.9319L11.5565 36.9263H11.6688H11.7474C11.7839 36.9263 11.8232 36.9263 11.8596 36.9319L11.9439 36.9375C12.0168 36.9432 12.0898 36.9544 12.16 36.9656L12.2835 36.9881L12.3789 37.0077L12.4856 37.0358L12.5754 37.0611L12.6709 37.0919L12.7888 37.134L12.8421 37.1565L12.9768 37.2154L13.1144 37.2856L13.2042 37.3361L13.3165 37.4035L13.3951 37.454L13.4681 37.5046L13.5467 37.5635L13.6196 37.6197L13.6926 37.6814L13.7965 37.774L13.8779 37.8554L13.9874 37.9705L14.0688 38.066L14.1193 38.1277L14.2147 38.2568L14.2709 38.3382L14.3354 38.4421L14.4028 38.56L14.4084 38.5712C14.4281 38.6077 14.4449 38.6414 14.4618 38.6779L14.487 38.7312L14.5432 38.8632L14.5684 38.9305L14.5965 39.0063L14.6049 39.0288C14.6246 39.0877 14.6414 39.1495 14.6582 39.2084C14.6863 39.3179 14.7116 39.4274 14.7284 39.5397C14.7368 39.6042 14.7453 39.6716 14.7509 39.7361C14.7565 39.7951 14.7593 39.854 14.7621 39.9158V40.0056V52.8309L32.0842 57.4709L49.4063 52.8309V40.0056C49.4063 39.9158 49.4091 39.826 49.4175 39.7361C49.4232 39.6688 49.4316 39.6042 49.44 39.5397C49.4568 39.4274 49.4793 39.3151 49.5102 39.2084C49.527 39.1467 49.5439 39.0877 49.5635 39.0288L49.5775 38.9839L49.5972 38.9305L49.6477 38.8014L49.6533 38.7874C49.6702 38.7509 49.6842 38.7144 49.7039 38.6779L49.7291 38.6246L49.7909 38.5067L49.8414 38.4225L49.8947 38.3382L49.9649 38.2344L50.0098 38.1726L50.0435 38.1277L50.094 38.066L50.1754 37.9705L50.2681 37.8695L50.3635 37.774L50.3944 37.746L50.4674 37.6814L50.5628 37.6L50.6498 37.5326L50.7284 37.4765L50.8182 37.4147L50.88 37.3754L50.9811 37.3165L51.0849 37.2604L51.1607 37.2211L51.2618 37.1761L51.3151 37.1537L51.4133 37.1144L51.5256 37.0751L51.607 37.0498L51.7389 37.0133L51.8512 36.9881L51.8905 36.9797C51.9972 36.96 52.1039 36.9432 52.2133 36.9347L52.2975 36.9291C52.334 36.9291 52.3733 36.9263 52.4098 36.9235H52.4884L52.5053 36.9291ZM27.0905 43.7783H27.1018H37.0863H37.0975H37.1368H37.1761C37.7853 43.8007 38.2737 44.3004 38.2737 44.9151C38.2737 45.0526 38.2512 45.1818 38.2063 45.3025C37.527 47.9747 35.1102 49.9537 32.2302 49.9537H32.0954H31.9607C29.0807 49.9537 26.6639 47.9747 25.9846 45.3025C25.9396 45.1818 25.9172 45.0498 25.9172 44.9151C25.9172 44.3004 26.4056 43.7979 27.0147 43.7783H27.054C27.054 43.7783 27.0793 43.7783 27.0933 43.7783H27.0905ZM40.9572 31.4246C43.2561 31.4246 45.12 33.2884 45.12 35.5874C45.12 37.8863 43.2561 39.7502 40.9572 39.7502C38.6582 39.7502 36.7944 37.8863 36.7944 35.5874C36.7944 33.2884 38.6582 31.4246 40.9572 31.4246ZM23.5004 31.4246C25.7993 31.4246 27.6632 33.2884 27.6632 35.5874C27.6632 37.8863 25.7993 39.7502 23.5004 39.7502C21.2014 39.7502 19.3375 37.8863 19.3375 35.5874C19.3375 33.2884 21.2014 31.4246 23.5004 31.4246ZM32.0926 0H32.1825C34.8098 0.0477193 36.9263 2.19509 36.9263 4.83368C36.9263 5.60842 36.7439 6.34105 36.4211 6.98947C36.2246 7.38526 35.9747 7.74737 35.6828 8.07298L35.6182 8.14035C35.534 8.23018 35.4442 8.32 35.3516 8.40421L35.2814 8.46597C35.1888 8.54737 35.0905 8.62597 34.9895 8.70176L34.9137 8.7579L34.8491 8.80281L34.7593 8.86456L34.6807 8.91509L34.6161 8.95439L34.5516 8.99369C34.5291 9.00772 34.5067 9.01895 34.4842 9.03298C34.3607 9.10316 34.2316 9.17053 34.0997 9.22948L34.0126 9.26877L33.9621 9.29123C33.8807 9.32491 33.7993 9.3586 33.7151 9.38667L33.6561 9.40632L33.5663 9.43719V14.094L53.2632 19.3712C54.487 19.6997 55.3404 20.7186 55.5172 21.8975C55.5256 21.9368 55.534 21.9761 55.5396 22.0154C55.5593 22.1193 55.5705 22.2232 55.5789 22.3298L55.5846 22.459V22.5095V31.4246V31.5032C55.5789 31.694 55.5565 31.8793 55.52 32.059C55.506 32.1291 55.4891 32.1965 55.4695 32.2667C55.433 32.3986 55.3853 32.5277 55.3319 32.654C55.3179 32.6877 55.3011 32.7214 55.287 32.7551L55.2618 32.8056L55.2056 32.9151L55.1579 32.9993L55.1102 33.0779L55.0793 33.1256L55.0091 33.2295L54.9726 33.28L54.894 33.3783L54.8295 33.454L54.7368 33.5579L54.6582 33.6393L54.5516 33.7404L54.4505 33.8246L54.3775 33.8835L54.254 33.9733L54.2007 34.0098L54.1305 34.0547L54.0098 34.1277L53.9116 34.1811L53.8302 34.2204L53.746 34.2597L53.6421 34.3018L53.5607 34.3326L53.4372 34.3747L53.3418 34.4028L53.2126 34.4365L53.0975 34.4618L53.033 34.473L52.9263 34.4898L52.814 34.5039L52.7242 34.5123L52.6119 34.5179H52.4996H52.4211L52.3088 34.5123L52.2246 34.5067C52.1516 34.5011 52.0786 34.4898 52.0084 34.4786L51.8849 34.4561L51.7895 34.4365L51.6828 34.4084L51.593 34.3832L51.4975 34.3523L51.3796 34.3102L51.3263 34.2877L51.1916 34.2288L51.054 34.1586L50.9502 34.0997L50.8547 34.0407L50.7761 33.9902L50.7032 33.9397L50.6246 33.8807L50.5516 33.8246L50.4758 33.7628L50.3719 33.6702L50.2905 33.5916L50.1839 33.4765L50.0968 33.3726L50.0491 33.3137L49.9593 33.1902L49.9032 33.1088L49.8358 32.9993L49.7712 32.8842L49.7628 32.8702C49.746 32.8365 49.7291 32.8028 49.7123 32.7691C49.6954 32.7326 49.6786 32.6961 49.6618 32.6597L49.6421 32.6119L49.6225 32.5642C49.6084 32.5305 49.5972 32.494 49.5832 32.4604C49.5719 32.4239 49.5579 32.3874 49.5467 32.3509C49.5186 32.2582 49.4933 32.1656 49.4737 32.0702C49.44 31.9074 49.4175 31.7361 49.4119 31.5649V31.4358V25.0218L32.0898 20.3818L14.7677 25.0218V31.4358C14.7677 31.6547 14.7453 31.8653 14.7032 32.0702C14.6835 32.1656 14.6582 32.2582 14.6302 32.3509C14.6189 32.3874 14.6077 32.4239 14.5937 32.4604L14.574 32.5109L14.5347 32.6091L14.5151 32.6568C14.4982 32.6933 14.4814 32.7298 14.4646 32.7663L14.4393 32.8168L14.3804 32.9291L14.327 33.0218L14.2737 33.106L14.2035 33.2098L14.1614 33.266L14.1249 33.3137L14.066 33.3867L13.9902 33.4765L13.8975 33.5775L13.8021 33.673L13.7712 33.7011L13.6982 33.7656L13.5747 33.8667L13.4961 33.9284L13.4035 33.993L13.3025 34.0575L13.2463 34.0912L13.1396 34.153L13.0498 34.2007L12.9404 34.2512L12.9039 34.2681L12.8505 34.2905L12.7523 34.3298L12.64 34.3691L12.5586 34.3944L12.4267 34.4309L12.3144 34.4561L12.2751 34.4646C12.1684 34.4842 12.0618 34.5011 11.9523 34.5095L11.8344 34.5179H11.7558L11.6772 34.5207H11.5649L11.4077 34.5095L11.3123 34.5011L11.2084 34.487L11.1439 34.4758L11.0175 34.4505L10.9446 34.4337L10.8547 34.4112L10.7368 34.3775L10.5937 34.327L10.4646 34.2765L10.3411 34.2204L10.2596 34.1811L10.1446 34.1193L10.0323 34.0519L9.97053 34.0126L9.85263 33.9312L9.78526 33.8807L9.7207 33.8302L9.61123 33.7347L9.51579 33.6449L9.43719 33.5635L9.40912 33.5326L9.34456 33.4597L9.2407 33.3361L9.2014 33.2856L9.13684 33.1958L9.09193 33.1312L9.03579 33.0414L8.97684 32.9432L8.93474 32.8646C8.91789 32.8309 8.90105 32.7972 8.88421 32.7635C8.86737 32.7298 8.85333 32.6961 8.8393 32.6625C8.78596 32.539 8.73825 32.4098 8.70175 32.2751C8.68211 32.2077 8.66526 32.1375 8.65123 32.0674C8.61474 31.8877 8.59228 31.7025 8.58667 31.5116V31.433V22.5179V22.4449C8.59509 22.3018 8.60912 22.1614 8.63439 22.0239L8.64842 21.9565L8.65965 21.906C8.83088 20.7551 9.65333 19.753 10.8323 19.4021L10.9137 19.3797L30.6105 14.1025V9.44562L30.5797 9.43719C30.5404 9.42316 30.5011 9.40912 30.4618 9.39509C30.3775 9.36421 30.2961 9.33333 30.2147 9.29965L30.1642 9.27719L30.0772 9.2379C29.9453 9.17895 29.8189 9.11158 29.6926 9.0414L29.6253 9.00211C29.5832 8.97684 29.5382 8.95158 29.4961 8.92351L29.3923 8.85614C29.3502 8.82807 29.3053 8.79719 29.2632 8.76632L29.1874 8.71018C29.0863 8.63439 28.9909 8.55579 28.8954 8.47439L28.8253 8.41263C28.7326 8.32842 28.6456 8.2414 28.5586 8.14877L28.494 8.0814C28.2021 7.75579 27.9523 7.39369 27.7558 6.9979C27.433 6.34947 27.2505 5.61684 27.2505 4.84211C27.2505 2.17263 29.4147 0.00842105 32.0842 0.00842105L32.0926 0ZM61.0975 31.0204H61.1761C62.8182 31.0625 64.1432 32.3874 64.1853 34.0295V34.1081V37.0639C64.1853 38.7425 62.8435 40.1095 61.1761 40.1516H61.0975C59.3909 40.1516 58.0098 38.7705 58.0098 37.0639V34.1081C58.0098 32.4014 59.3937 31.0204 61.0975 31.0204ZM3.08772 40.1516C1.38105 40.1516 0 38.7677 0 37.0639V34.1081C0 32.4014 1.38386 31.0204 3.08772 31.0204H3.16632C4.80842 31.0625 6.13333 32.3874 6.17544 34.0295V34.1081V37.0639C6.17544 38.7425 4.83368 40.1095 3.16632 40.1516H3.08772Z" fill="url(#paint0_radial_330_1295)"/>
<defs>
<radialGradient id="paint0_radial_330_1295" cx="0" cy="0" r="1" gradientUnits="userSpaceOnUse" gradientTransform="translate(32.1745 32.1303) rotate(155.85) scale(35.1719 35.1046)">
<stop stop-color="#FF00FE"/>
<stop offset="1" stop-color="#FE8C00"/>
</radialGradient>
</defs>
</svg>
